<mxfile host="app.diagrams.net" modified="2023-11-07T04:02:01.884Z" agent="Mozilla/5.0 (Windows NT 10.0; Win64; x64) AppleWebKit/537.36 (KHTML, like Gecko) Chrome/116.0.5845.931 YaBrowser/23.9.3.931 Yowser/2.5 Safari/537.36" etag="FzJGAgbclrqdAcF6lyjy" version="22.0.8" type="google">
  <diagram name="Страница — 1" id="_EXkRLiLEC_0sL_zTACR">
    <mxGraphModel dx="1290" dy="575" grid="1" gridSize="10" guides="1" tooltips="1" connect="1" arrows="1" fold="1" page="1" pageScale="1" pageWidth="827" pageHeight="1169" math="0" shadow="0">
      <root>
        <mxCell id="0" />
        <mxCell id="1" parent="0" />
        <mxCell id="k2g7VDKhPb8Eylyx4uSJ-1" value="" style="ellipse;shape=umlEntity;whiteSpace=wrap;html=1;" parent="1" vertex="1">
          <mxGeometry x="708" y="245" width="80" height="80" as="geometry" />
        </mxCell>
        <mxCell id="k2g7VDKhPb8Eylyx4uSJ-2" value="" style="ellipse;shape=umlEntity;whiteSpace=wrap;html=1;" parent="1" vertex="1">
          <mxGeometry x="708" y="355" width="80" height="80" as="geometry" />
        </mxCell>
        <mxCell id="k2g7VDKhPb8Eylyx4uSJ-3" value="" style="ellipse;shape=umlEntity;whiteSpace=wrap;html=1;" parent="1" vertex="1">
          <mxGeometry x="708" y="465" width="80" height="80" as="geometry" />
        </mxCell>
        <mxCell id="k2g7VDKhPb8Eylyx4uSJ-4" value="user:User" style="text;html=1;strokeColor=none;fillColor=none;align=center;verticalAlign=middle;whiteSpace=wrap;rounded=0;" parent="1" vertex="1">
          <mxGeometry x="718" y="325" width="70" height="30" as="geometry" />
        </mxCell>
        <mxCell id="k2g7VDKhPb8Eylyx4uSJ-5" value="cook:Cook" style="text;html=1;strokeColor=none;fillColor=none;align=center;verticalAlign=middle;whiteSpace=wrap;rounded=0;" parent="1" vertex="1">
          <mxGeometry x="713" y="435" width="70" height="30" as="geometry" />
        </mxCell>
        <mxCell id="k2g7VDKhPb8Eylyx4uSJ-6" value="service: Service" style="text;html=1;strokeColor=none;fillColor=none;align=center;verticalAlign=middle;whiteSpace=wrap;rounded=0;" parent="1" vertex="1">
          <mxGeometry x="700.5" y="545" width="95" height="30" as="geometry" />
        </mxCell>
        <mxCell id="k2g7VDKhPb8Eylyx4uSJ-7" value="" style="ellipse;shape=umlControl;whiteSpace=wrap;html=1;" parent="1" vertex="1">
          <mxGeometry x="518" y="365" width="70" height="80" as="geometry" />
        </mxCell>
        <mxCell id="k2g7VDKhPb8Eylyx4uSJ-8" value="FoodService" style="text;html=1;strokeColor=none;fillColor=none;align=center;verticalAlign=middle;whiteSpace=wrap;rounded=0;" parent="1" vertex="1">
          <mxGeometry x="493" y="445" width="120" height="30" as="geometry" />
        </mxCell>
        <mxCell id="k2g7VDKhPb8Eylyx4uSJ-9" value=":client" style="shape=umlActor;verticalLabelPosition=bottom;verticalAlign=top;html=1;outlineConnect=0;" parent="1" vertex="1">
          <mxGeometry x="138" y="376" width="30" height="60" as="geometry" />
        </mxCell>
        <mxCell id="k2g7VDKhPb8Eylyx4uSJ-12" value="" style="shape=umlBoundary;whiteSpace=wrap;html=1;" parent="1" vertex="1">
          <mxGeometry x="288" y="370" width="100" height="80" as="geometry" />
        </mxCell>
        <mxCell id="k2g7VDKhPb8Eylyx4uSJ-13" value=": RequestPage" style="text;html=1;strokeColor=none;fillColor=none;align=center;verticalAlign=middle;whiteSpace=wrap;rounded=0;" parent="1" vertex="1">
          <mxGeometry x="288" y="450" width="120" height="30" as="geometry" />
        </mxCell>
        <mxCell id="k2g7VDKhPb8Eylyx4uSJ-14" value="" style="endArrow=none;html=1;rounded=0;entryX=0;entryY=0.5;entryDx=0;entryDy=0;" parent="1" target="k2g7VDKhPb8Eylyx4uSJ-3" edge="1">
          <mxGeometry width="50" height="50" relative="1" as="geometry">
            <mxPoint x="588" y="405" as="sourcePoint" />
            <mxPoint x="578" y="365" as="targetPoint" />
          </mxGeometry>
        </mxCell>
        <mxCell id="k2g7VDKhPb8Eylyx4uSJ-15" value="" style="endArrow=none;html=1;rounded=0;entryX=0;entryY=0.5;entryDx=0;entryDy=0;" parent="1" target="k2g7VDKhPb8Eylyx4uSJ-2" edge="1">
          <mxGeometry width="50" height="50" relative="1" as="geometry">
            <mxPoint x="588" y="405" as="sourcePoint" />
            <mxPoint x="578" y="365" as="targetPoint" />
          </mxGeometry>
        </mxCell>
        <mxCell id="k2g7VDKhPb8Eylyx4uSJ-16" value="" style="endArrow=none;html=1;rounded=0;entryX=0;entryY=0.5;entryDx=0;entryDy=0;" parent="1" target="k2g7VDKhPb8Eylyx4uSJ-1" edge="1">
          <mxGeometry width="50" height="50" relative="1" as="geometry">
            <mxPoint x="588" y="405" as="sourcePoint" />
            <mxPoint x="578" y="365" as="targetPoint" />
          </mxGeometry>
        </mxCell>
        <mxCell id="k2g7VDKhPb8Eylyx4uSJ-17" value="" style="endArrow=classic;html=1;rounded=0;" parent="1" edge="1">
          <mxGeometry width="50" height="50" relative="1" as="geometry">
            <mxPoint x="608" y="365" as="sourcePoint" />
            <mxPoint x="658" y="315" as="targetPoint" />
          </mxGeometry>
        </mxCell>
        <mxCell id="k2g7VDKhPb8Eylyx4uSJ-18" value="9: addClient()" style="edgeLabel;html=1;align=center;verticalAlign=middle;resizable=0;points=[];rotation=-45;" parent="k2g7VDKhPb8Eylyx4uSJ-17" vertex="1" connectable="0">
          <mxGeometry x="0.04" y="3" relative="1" as="geometry">
            <mxPoint x="-19" y="-12" as="offset" />
          </mxGeometry>
        </mxCell>
        <mxCell id="k2g7VDKhPb8Eylyx4uSJ-19" value="2: showServices()" style="text;html=1;strokeColor=none;fillColor=none;align=center;verticalAlign=middle;whiteSpace=wrap;rounded=0;" parent="1" vertex="1">
          <mxGeometry x="400.5" y="376" width="105" height="30" as="geometry" />
        </mxCell>
        <mxCell id="k2g7VDKhPb8Eylyx4uSJ-20" value="" style="endArrow=classic;html=1;rounded=0;" parent="1" edge="1">
          <mxGeometry width="50" height="50" relative="1" as="geometry">
            <mxPoint x="623" y="394.66" as="sourcePoint" />
            <mxPoint x="683" y="384.66" as="targetPoint" />
          </mxGeometry>
        </mxCell>
        <mxCell id="k2g7VDKhPb8Eylyx4uSJ-21" value="5: getInfo()" style="edgeLabel;html=1;align=center;verticalAlign=middle;resizable=0;points=[];rotation=-10;" parent="k2g7VDKhPb8Eylyx4uSJ-20" vertex="1" connectable="0">
          <mxGeometry x="0.04" y="3" relative="1" as="geometry">
            <mxPoint x="-6" y="-11" as="offset" />
          </mxGeometry>
        </mxCell>
        <mxCell id="k2g7VDKhPb8Eylyx4uSJ-22" value="" style="endArrow=classic;html=1;rounded=0;" parent="1" edge="1">
          <mxGeometry width="50" height="50" relative="1" as="geometry">
            <mxPoint x="636" y="435" as="sourcePoint" />
            <mxPoint x="693" y="485" as="targetPoint" />
          </mxGeometry>
        </mxCell>
        <mxCell id="k2g7VDKhPb8Eylyx4uSJ-23" value="3: getInfo()" style="edgeLabel;html=1;align=right;verticalAlign=top;resizable=0;points=[];labelPosition=left;verticalLabelPosition=bottom;rotation=40;" parent="k2g7VDKhPb8Eylyx4uSJ-22" vertex="1" connectable="0">
          <mxGeometry x="0.04" y="3" relative="1" as="geometry">
            <mxPoint x="30" y="-9" as="offset" />
          </mxGeometry>
        </mxCell>
        <mxCell id="k2g7VDKhPb8Eylyx4uSJ-24" value="" style="line;strokeWidth=1;fillColor=none;align=left;verticalAlign=middle;spacingTop=-1;spacingLeft=3;spacingRight=3;rotatable=0;labelPosition=right;points=[];portConstraint=eastwest;strokeColor=inherit;" parent="1" vertex="1">
          <mxGeometry x="388" y="406" width="130" height="8" as="geometry" />
        </mxCell>
        <mxCell id="k2g7VDKhPb8Eylyx4uSJ-25" value="" style="line;strokeWidth=1;fillColor=none;align=left;verticalAlign=middle;spacingTop=-1;spacingLeft=3;spacingRight=3;rotatable=0;labelPosition=right;points=[];portConstraint=eastwest;strokeColor=inherit;" parent="1" vertex="1">
          <mxGeometry x="168" y="406" width="120" height="8" as="geometry" />
        </mxCell>
        <mxCell id="k2g7VDKhPb8Eylyx4uSJ-26" value="4: showInfoServ()" style="text;html=1;strokeColor=none;fillColor=none;align=center;verticalAlign=middle;whiteSpace=wrap;rounded=0;" parent="1" vertex="1">
          <mxGeometry x="403" y="420" width="106" height="30" as="geometry" />
        </mxCell>
        <mxCell id="k2g7VDKhPb8Eylyx4uSJ-28" value="8: addNewClient()" style="text;html=1;strokeColor=none;fillColor=none;align=center;verticalAlign=middle;whiteSpace=wrap;rounded=0;" parent="1" vertex="1">
          <mxGeometry x="408" y="349.31" width="105" height="30" as="geometry" />
        </mxCell>
        <mxCell id="k2g7VDKhPb8Eylyx4uSJ-29" value="" style="endArrow=classic;html=1;rounded=0;entryX=1;entryY=1;entryDx=0;entryDy=0;" parent="1" target="k2g7VDKhPb8Eylyx4uSJ-28" edge="1">
          <mxGeometry width="50" height="50" relative="1" as="geometry">
            <mxPoint x="403" y="379.31" as="sourcePoint" />
            <mxPoint x="473" y="379.31" as="targetPoint" />
          </mxGeometry>
        </mxCell>
        <mxCell id="k2g7VDKhPb8Eylyx4uSJ-30" value="" style="endArrow=classic;html=1;rounded=0;" parent="1" edge="1">
          <mxGeometry width="50" height="50" relative="1" as="geometry">
            <mxPoint x="418" y="399.5" as="sourcePoint" />
            <mxPoint x="488" y="399.5" as="targetPoint" />
          </mxGeometry>
        </mxCell>
        <mxCell id="k2g7VDKhPb8Eylyx4uSJ-31" value="" style="endArrow=classic;html=1;rounded=0;exitX=0.949;exitY=-0.002;exitDx=0;exitDy=0;exitPerimeter=0;" parent="1" source="k2g7VDKhPb8Eylyx4uSJ-26" edge="1">
          <mxGeometry width="50" height="50" relative="1" as="geometry">
            <mxPoint x="474.5" y="420" as="sourcePoint" />
            <mxPoint x="414.5" y="420" as="targetPoint" />
          </mxGeometry>
        </mxCell>
        <mxCell id="k2g7VDKhPb8Eylyx4uSJ-32" value="" style="endArrow=classic;html=1;rounded=0;" parent="1" edge="1">
          <mxGeometry width="50" height="50" relative="1" as="geometry">
            <mxPoint x="210" y="404.65999999999997" as="sourcePoint" />
            <mxPoint x="280" y="404.65999999999997" as="targetPoint" />
          </mxGeometry>
        </mxCell>
        <mxCell id="k2g7VDKhPb8Eylyx4uSJ-34" value="8:User" style="edgeLabel;html=1;align=center;verticalAlign=middle;resizable=0;points=[];" parent="k2g7VDKhPb8Eylyx4uSJ-32" vertex="1" connectable="0">
          <mxGeometry x="-0.1143" y="3" relative="1" as="geometry">
            <mxPoint x="-1" y="-6" as="offset" />
          </mxGeometry>
        </mxCell>
        <mxCell id="tt9dhhujRJN-0TbsFoyt-2" value="6: showInfoCook()" style="text;html=1;strokeColor=none;fillColor=none;align=center;verticalAlign=middle;whiteSpace=wrap;rounded=0;" parent="1" vertex="1">
          <mxGeometry x="400" y="450" width="106" height="30" as="geometry" />
        </mxCell>
        <mxCell id="tt9dhhujRJN-0TbsFoyt-3" value="" style="endArrow=classic;html=1;rounded=0;exitX=1;exitY=0;exitDx=0;exitDy=0;" parent="1" source="tt9dhhujRJN-0TbsFoyt-2" edge="1">
          <mxGeometry width="50" height="50" relative="1" as="geometry">
            <mxPoint x="471.5" y="450" as="sourcePoint" />
            <mxPoint x="411.5" y="450" as="targetPoint" />
          </mxGeometry>
        </mxCell>
        <mxCell id="tt9dhhujRJN-0TbsFoyt-5" value="&lt;div style=&quot;font-size: 15px;&quot;&gt;&lt;font style=&quot;font-size: 15px;&quot;&gt;Первым действием объект user вводит данные на странице&lt;/font&gt;&lt;/div&gt;&lt;div style=&quot;font-size: 15px;&quot;&gt;&lt;font style=&quot;font-size: 15px;&quot;&gt;запроса – граничный класс RequestPage.&amp;nbsp;&lt;/font&gt;&lt;/div&gt;&lt;div style=&quot;font-size: 15px;&quot;&gt;&lt;font style=&quot;font-size: 15px;&quot;&gt;&amp;nbsp;Граничный класс&lt;/font&gt;&lt;/div&gt;&lt;div style=&quot;font-size: 15px;&quot;&gt;&lt;font style=&quot;font-size: 15px;&quot;&gt;посылает сообщение (3) соответствующему контроллеру FoodService&lt;/font&gt;&lt;span style=&quot;background-color: initial;&quot;&gt;&amp;nbsp;о том, что необходимо заказать.&amp;nbsp;&lt;/span&gt;&lt;/div&gt;&lt;div style=&quot;font-size: 15px;&quot;&gt;&lt;span style=&quot;background-color: initial;&quot;&gt;Управ&lt;/span&gt;&lt;font style=&quot;background-color: initial;&quot;&gt;ляющий объект отправляет запрос на получение информации об услугах(4),&amp;nbsp;&lt;/font&gt;&lt;span style=&quot;background-color: initial;&quot;&gt;&amp;nbsp;а затем отображает (5) выбор заказчику. Далее после сделанного выбора, управляющий объект отправляет запрос на получение информации о поварах(6), а затем также отображает информацию клиенту. После выбранного заказа, граничный класс посылает запрос на добавление нового пользователя(8) и управляющий объект посылает запрос на добавление нового клиента в базу данных(9).&lt;/span&gt;&lt;/div&gt;" style="text;html=1;strokeColor=none;fillColor=none;align=center;verticalAlign=middle;whiteSpace=wrap;rounded=0;" parent="1" vertex="1">
          <mxGeometry x="70" y="560" width="730" height="325" as="geometry" />
        </mxCell>
        <mxCell id="OheGwSTTWletGQ9PpP72-1" value="" style="endArrow=classic;html=1;rounded=0;" parent="1" edge="1">
          <mxGeometry width="50" height="50" relative="1" as="geometry">
            <mxPoint x="203" y="420" as="sourcePoint" />
            <mxPoint x="270" y="420" as="targetPoint" />
          </mxGeometry>
        </mxCell>
        <mxCell id="OheGwSTTWletGQ9PpP72-2" value="7: choiceServ" style="edgeLabel;html=1;align=center;verticalAlign=middle;resizable=0;points=[];" parent="OheGwSTTWletGQ9PpP72-1" vertex="1" connectable="0">
          <mxGeometry x="0.0149" y="-3" relative="1" as="geometry">
            <mxPoint y="7" as="offset" />
          </mxGeometry>
        </mxCell>
        <mxCell id="OheGwSTTWletGQ9PpP72-3" value="" style="endArrow=classic;html=1;rounded=0;" parent="1" edge="1">
          <mxGeometry width="50" height="50" relative="1" as="geometry">
            <mxPoint x="200" y="444" as="sourcePoint" />
            <mxPoint x="267" y="444" as="targetPoint" />
          </mxGeometry>
        </mxCell>
        <mxCell id="OheGwSTTWletGQ9PpP72-4" value="1: lookMenu" style="edgeLabel;html=1;align=center;verticalAlign=middle;resizable=0;points=[];" parent="OheGwSTTWletGQ9PpP72-3" vertex="1" connectable="0">
          <mxGeometry x="0.0149" y="-3" relative="1" as="geometry">
            <mxPoint y="7" as="offset" />
          </mxGeometry>
        </mxCell>
      </root>
    </mxGraphModel>
  </diagram>
</mxfile>
